<?xml version="1.0" encoding="utf-8"?>
<!-- Generator: Adobe Illustrator 24.3.0, SVG Export Plug-In . SVG Version: 6.00 Build 0)  -->
<svg version="1.1" id="Layer_1" focusable="false" xmlns="http://www.w3.org/2000/svg" xmlns:xlink="http://www.w3.org/1999/xlink"
	 x="0px" y="0px" viewBox="0 0 448 512" style="enable-background:new 0 0 448 512;" xml:space="preserve">
<style type="text/css">
	.st0{fill:#8C1515;}
</style>
<path class="st0" d="M400,32H48C21.5,32,0,53.5,0,80v352c0,26.5,21.5,48,48,48h352c26.5,0,48-21.5,48-48V80
	C448,53.5,426.5,32,400,32z M112,416c-26.5,0-48-21.5-48-48s21.5-48,48-48s48,21.5,48,48S138.5,416,112,416z M269.5,416h-34.3
	c-6,0-11.1-4.6-11.4-10.6c-5.2-80.1-69.2-143.9-149.1-149.1c-6-0.4-10.6-5.4-10.6-11.4v-34.3c0-6.5,5.5-11.8,12-11.4
	c110.5,6,199,94.5,205,205C281.3,410.5,276.1,416,269.5,416L269.5,416z M372.6,416h-34.3c-6.2,0-11.2-4.9-11.4-11
	C321.2,268.4,211.6,158.8,75,153.2c-6.2-0.3-11-5.3-11-11.4v-34.3c0-6.5,5.3-11.7,11.8-11.4C243.6,102,378,237.2,384,404.2
	C384.2,410.7,379,416,372.6,416L372.6,416z"/>
</svg>
