<?xml version="1.0" encoding="utf-8"?>
<!-- Generator: Adobe Illustrator 24.3.0, SVG Export Plug-In . SVG Version: 6.00 Build 0)  -->
<svg version="1.1" id="Layer_1" focusable="false" xmlns="http://www.w3.org/2000/svg" xmlns:xlink="http://www.w3.org/1999/xlink"
	 x="0px" y="0px" viewBox="0 0 640 512" style="enable-background:new 0 0 640 512;" xml:space="preserve">
<style type="text/css">
	.st0{fill:#8C1515;}
</style>
<path class="st0" d="M640,51.2l-0.3,12.2c-28.1,0.8-45,15.8-55.8,40.3c-25,57.8-103.3,240-155.3,358.6H415l-81.9-193.1
	c-32.5,63.6-68.3,130-99.2,193.1c-0.3,0.3-15,0-15-0.3C172,352.3,122.8,243.4,75.8,133.4c-11.4-26.7-49.4-70-75.6-69.7
	c0-3.1-0.3-10-0.3-14.2h161.9v13.9c-19.2,1.1-52.8,13.3-43.3,34.2c21.9,49.7,103.6,240.3,125.6,288.6c15-29.7,57.8-109.2,75.3-142.8
	c-13.9-28.3-58.6-133.9-72.8-160c-9.7-17.8-36.1-19.4-55.8-19.7V49.8l142.5,0.3v13.1c-19.4,0.6-38.1,7.8-29.4,26.1
	c18.9,40,30.6,68.1,48.1,104.7c5.6-10.8,34.7-69.4,48.1-100.8c8.9-20.6-3.9-28.6-38.6-29.4c0.3-3.6,0-10.3,0.3-13.6
	c44.4-0.3,111.1-0.3,123.1-0.6v13.6C462.4,64,439.1,76,426.8,94.9l-59.2,122.8c6.4,16.1,63.3,142.8,69.2,156.7L559.2,91.8
	c-8.6-23.1-36.4-28.1-47.2-28.3V49.6l127.8,1.1C639.8,50.7,640,51.2,640,51.2z"/>
</svg>
